<?xml version="1.0" standalone="no"?>
<!--Created with Sketsa SVG Editor (http://www.kiyut.com) by Solveig-->
<svg contentScriptType="text/ecmascript" width="190px" xmlns:xlink="http://www.w3.org/1999/xlink" baseProfile="full"
    zoomAndPan="magnify" contentStyleType="text/css" height="37px" preserveAspectRatio="xMidYMid meet" xmlns="http://www.w3.org/2000/svg"
    version="1.0">
    <g id="erEn" transform="scale(0.46)">
        <g x="0" y="0" id="erNo">
            <rect fill="#ef2b2d" height="80" width="110"/>
            <rect fill="#fff" x="30" width="20" height="80"/>
            <rect fill="#fff" width="110" height="20" y="30"/>
            <rect fill="#002868" x="35" width="10" height="80"/>
            <rect fill="#002868" width="110" height="10" y="35"/>
        </g>
        <g id="erSv" transform="scale(8)">
            <g transform="translate(15,0)">
                <rect fill="#006aa7" height="10" width="16"/>
                <rect fill="#fecc00" x="5" width="2" height="10"/>
                <rect fill="#fecc00" width="16" height="2" y="4"/>
            </g>
        </g>
        <g id="erEn" transform="scale(2.62)">
            <g transform="translate(99,0)">
                <clipPath id="t">
                    <path d="M30,15 h30 v15 z v15 h-30 z h-30 v-15 z v-15 h30 z"/>
                </clipPath>
                <path fill="#00247d" d="M0,0 v30 h60 v-30 z"/>
                <path stroke-width="6" d="M0,0 L60,30 M60,0 L0,30" stroke="#fff"/>
                <path stroke-width="4" d="M0,0 L60,30 M60,0 L0,30" clip-path="url(#t)" stroke="#cf142b"/>
                <path stroke-width="10" d="M30,0 v30 M0,15 h60" stroke="#fff"/>
                <path stroke-width="6" d="M30,0 v30 M0,15 h60" stroke="#cf142b"/>
            </g>
        </g>
    </g>
</svg>