<?xml version="1.0" standalone="no"?>
<svg contentScriptType="text/ecmascript" width="500" xmlns:xlink="http://www.w3.org/1999/xlink" baseProfile="full"
    zoomAndPan="magnify" style="display: block;" contentStyleType="text/css" id="svg" height="619" preserveAspectRatio="xMidYMid meet"
    xmlns="http://www.w3.org/2000/svg" version="1.1">
    <g id="svgg">
        <path fill="#bc948d" id="path0" d="M0.000 15.702 L 0.000 31.404 4.200 30.814 C 6.510 30.490,10.560 30.174,13.200 
            30.112 L 18.000 30.000 17.746 34.169 C 17.606 36.462,18.035 41.322,18.699 44.969 C 20.330 53.925,20.458 
            56.121,19.462 58.000 C 18.995 58.880,17.999 61.483,17.248 63.784 C 16.303 66.679,14.849 68.897,12.528 70.984 
            C 8.600 74.517,8.364 77.252,11.881 78.478 C 15.109 79.604,16.513 82.232,14.653 83.669 C 12.715 85.165,9.553 
            84.382,7.733 81.956 C 6.614 80.464,5.523 80.000,3.133 80.000 L 0.000 80.000 0.000 83.600 C 0.000 
            87.075,0.084 87.200,2.426 87.200 C 4.207 87.200,5.032 87.678,5.529 89.000 C 6.528 91.650,4.495 95.200,1.979 
            95.200 L 0.000 95.200 0.000 118.400 L 0.000 141.600 2.329 141.600 C 4.328 141.600,4.904 141.063,6.405 
            137.800 C 7.365 135.710,9.195 131.840,10.471 129.200 C 11.747 126.560,13.473 122.420,14.308 120.000 C 17.812 
            109.838,22.252 101.199,26.268 96.727 C 28.515 94.224,30.709 91.326,31.143 90.288 C 31.577 89.250,33.384 
            84.609,35.158 79.976 C 37.899 72.817,38.905 71.117,41.854 68.651 C 44.139 66.742,45.821 64.426,46.776 61.875 
            C 50.793 51.145,62.597 37.758,72.400 32.815 C 81.559 28.197,82.955 27.151,89.554 19.954 C 95.450 
            13.526,97.069 12.278,104.094 8.753 C 111.455 5.059,112.000 4.621,112.000 2.393 L 112.000 0.000 56.000 0.000 
            L 0.000 0.000 0.000 15.702 M170.400 2.361 C 170.400 12.532,168.323 14.394,152.800 18.146 C 139.038 
            21.471,137.487 23.005,147.748 23.144 C 157.115 23.271,168.133 26.833,170.795 30.595 C 175.195 36.814,176.637 
            39.889,176.988 43.801 L 177.365 48.002 174.483 48.744 C 172.897 49.152,167.100 49.465,161.600 49.438 C 
            146.025 49.363,128.626 55.029,119.703 63.082 C 112.878 69.242,103.717 78.886,102.874 80.800 C 102.389 
            81.900,100.662 85.142,99.037 88.004 C 94.324 96.303,93.542 100.512,92.794 121.600 C 92.278 136.140,91.768 
            141.759,90.544 146.400 C 89.673 149.700,88.716 154.560,88.417 157.200 C 87.878 161.955,83.544 189.110,82.762 
            192.627 C 82.539 193.632,81.511 194.839,80.479 195.310 C 76.990 196.899,74.922 201.920,75.495 207.407 C 
            75.922 211.485,74.710 226.072,73.856 227.142 C 73.706 227.330,72.853 226.700,71.960 225.742 C 71.068 
            224.784,70.604 224.000,70.929 224.000 C 71.254 224.000,71.088 223.568,70.560 223.040 C 70.000 222.480,69.600 
            219.796,69.600 216.604 C 69.600 211.800,69.349 210.877,67.560 209.087 L 65.520 207.047 63.021 210.820 C 
            61.646 212.895,59.456 215.241,58.155 216.032 C 56.853 216.824,54.485 219.432,52.894 221.827 C 48.557 
            228.354,44.712 233.555,41.723 236.936 C 39.167 239.827,37.818 242.027,34.199 249.200 C 33.311 250.960,31.733 
            253.418,30.692 254.661 C 29.541 256.037,28.800 257.957,28.800 259.563 C 28.800 262.597,27.849 263.591,24.199 
            264.371 C 22.256 264.787,21.471 265.467,21.095 267.064 C 20.817 268.239,19.696 271.180,18.603 273.600 C 
            12.175 287.830,10.202 292.791,8.346 299.390 C 5.256 310.384,4.447 312.000,2.041 312.000 L 0.000 312.000 
            0.000 403.600 L 0.000 495.200 45.200 495.200 L 90.400 495.200 90.400 492.749 C 90.400 491.401,88.842 
            486.631,86.937 482.149 C 83.929 475.071,83.349 472.739,82.517 464.400 C 81.991 459.120,81.270 453.083,80.916 
            450.985 C 79.927 445.134,83.699 443.506,85.121 449.171 C 85.435 450.421,86.522 451.380,88.282 451.961 C 
            91.362 452.978,93.612 455.200,95.613 459.200 C 96.384 460.740,100.116 466.083,103.907 471.074 C 112.560 
            482.465,113.654 484.523,114.189 490.426 L 114.622 495.200 191.311 495.200 L 268.000 495.200 268.000 492.976 
            C 268.000 491.170,268.993 490.006,273.286 486.776 C 284.334 478.466,285.282 467.582,275.600 460.198 C 
            268.335 454.657,265.297 449.477,265.867 443.600 C 266.992 431.993,266.991 429.798,265.855 425.760 C 264.441 
            420.729,263.903 420.419,244.065 413.201 C 240.762 411.999,234.400 406.509,234.400 404.861 C 234.400 
            403.873,238.616 402.581,244.000 401.920 C 252.702 400.852,258.582 396.226,256.955 391.727 C 256.430 
            390.275,256.000 388.497,256.000 387.777 C 256.000 384.935,249.194 382.139,243.657 382.706 C 239.593 
            383.122,238.411 382.977,237.566 381.959 C 232.387 375.718,196.800 379.043,196.800 385.767 C 196.800 
            386.165,195.752 388.602,194.471 391.183 C 193.191 393.764,192.293 396.026,192.476 396.210 C 193.997 
            397.730,188.968 399.582,183.853 399.386 C 175.876 399.079,173.564 397.867,170.111 392.182 C 166.677 
            386.530,166.737 386.961,168.960 383.955 C 172.185 379.592,174.068 378.887,184.000 378.319 C 189.060 
            378.030,196.620 377.189,200.800 376.451 C 207.768 375.220,222.095 375.223,224.090 376.456 C 224.417 
            376.658,225.596 376.008,226.711 375.011 C 228.777 373.164,232.429 361.160,231.163 360.377 C 229.958 
            359.632,226.310 351.785,225.665 348.551 C 225.298 346.708,224.761 344.640,224.472 343.955 C 224.004 
            342.843,229.432 339.200,231.557 339.200 C 231.877 339.200,233.702 338.077,235.612 336.705 C 241.384 
            332.560,242.166 325.897,237.988 316.450 C 235.227 310.206,232.267 297.831,231.188 288.017 C 230.681 
            283.407,229.783 278.231,229.192 276.516 C 228.089 273.315,228.548 267.592,230.265 263.131 C 230.703 
            261.992,231.454 256.412,231.934 250.731 C 233.061 237.389,238.369 227.897,252.116 214.641 C 259.738 
            207.291,285.158 201.351,299.352 203.602 C 311.242 205.488,313.579 196.073,303.886 185.334 C 301.174 
            182.328,298.634 178.527,297.706 176.085 C 296.839 173.804,294.841 170.511,293.265 168.767 C 291.073 
            166.341,290.394 164.891,290.373 162.598 C 290.358 160.949,289.650 158.160,288.800 156.400 C 286.812 
            152.284,286.821 152.130,289.244 148.563 L 291.289 145.554 293.644 147.232 L 296.000 148.909 296.000 146.315 
            L 296.000 143.721 297.997 145.597 C 300.154 147.623,300.156 147.623,301.466 145.101 C 302.177 
            143.732,302.069 143.148,300.911 142.101 C 299.094 140.456,296.000 140.392,296.000 142.000 C 296.000 
            142.660,295.684 143.200,295.298 143.200 C 294.912 143.200,294.148 142.660,293.600 142.000 C 292.768 
            140.997,292.883 140.800,294.302 140.800 C 298.918 140.800,295.335 127.966,289.015 121.859 L 284.193 117.200 
            283.737 108.531 C 283.221 98.706,283.330 98.915,276.357 94.372 L 271.200 91.012 271.200 86.866 C 271.200 
            84.586,271.568 82.352,272.019 81.901 C 274.003 79.917,274.555 70.479,272.870 67.332 C 270.863 63.581,278.037 
            59.664,285.980 60.173 C 298.154 60.955,307.425 71.611,311.926 90.000 C 312.895 93.960,314.534 98.490,315.567 
            100.066 C 317.526 103.055,320.000 109.550,320.000 111.705 C 320.000 114.729,322.699 121.812,324.480 123.464 
            C 325.801 124.689,327.033 127.527,328.296 132.260 C 329.462 136.626,331.128 140.592,332.737 142.832 C 
            334.774 145.668,335.720 148.384,337.260 155.809 C 338.480 161.695,340.231 167.290,341.950 170.800 C 345.021 
            177.069,346.602 182.812,347.985 192.724 C 348.502 196.423,349.768 202.363,350.800 205.924 C 352.037 
            210.196,353.097 217.301,353.914 226.800 C 355.527 245.547,358.040 253.925,363.139 257.557 C 364.439 
            258.482,366.435 261.211,367.575 263.620 C 368.714 266.029,369.979 268.000,370.385 268.000 C 371.564 
            268.000,376.004 274.926,377.342 278.853 C 378.288 281.629,379.168 282.700,381.205 283.551 C 382.656 
            284.157,384.654 285.749,385.644 287.089 C 386.635 288.428,388.760 290.051,390.368 290.694 C 391.975 
            291.337,393.764 292.434,394.343 293.132 C 394.922 293.829,396.432 294.400,397.698 294.400 L 400.000 294.400 
            400.000 238.800 L 400.000 183.200 397.588 183.200 C 396.261 183.200,393.262 182.120,390.923 180.800 C 
            387.584 178.916,385.696 178.400,382.135 178.400 C 377.710 178.400,377.600 178.346,377.600 176.178 C 377.600 
            172.688,375.545 170.400,372.411 170.400 C 369.337 170.400,368.145 167.613,366.424 156.400 C 365.951 
            153.320,365.174 148.992,364.696 146.782 C 363.909 143.145,364.025 142.293,365.913 137.806 C 367.061 
            135.079,368.000 132.341,368.000 131.722 C 368.000 127.338,370.410 128.976,373.617 135.542 C 375.454 
            139.301,378.037 143.733,379.356 145.389 C 380.676 147.045,382.817 150.740,384.114 153.600 C 385.412 
            156.460,387.865 160.240,389.566 162.000 C 391.268 163.760,393.213 166.550,393.889 168.200 C 394.931 
            170.743,395.491 171.200,397.559 171.200 L 400.000 171.200 400.000 162.451 L 400.000 153.701 397.426 153.451 
            C 393.883 153.106,391.722 149.628,389.687 140.999 C 388.786 137.175,387.308 133.136,386.402 132.023 C 
            385.497 130.910,383.776 128.427,382.578 126.505 C 381.380 124.583,378.905 121.163,377.078 118.905 C 375.250 
            116.647,373.340 113.247,372.833 111.348 C 371.964 108.098,370.616 105.942,363.557 96.520 C 361.958 
            94.386,359.828 90.246,358.822 87.320 C 353.938 73.111,341.591 57.493,326.014 45.817 C 321.606 42.514,314.932 
            36.973,311.182 33.503 C 307.433 30.034,302.933 26.234,301.182 25.059 C 299.432 23.885,296.219 21.337,294.042 
            19.397 C 291.865 17.458,288.685 15.158,286.975 14.285 C 282.648 12.078,275.200 4.228,275.200 1.876 L 275.200 
            0.000 258.000 0.000 L 240.800 0.000 240.789 1.800 C 240.767 5.474,239.732 7.304,236.844 8.778 C 231.780 
            11.361,231.626 14.913,236.264 22.209 C 236.861 23.148,246.102 29.600,246.850 29.600 C 247.035 29.600,248.817 
            30.845,250.811 32.367 C 252.805 33.889,255.778 35.350,257.418 35.613 C 274.610 38.373,274.853 39.343,258.787 
            41.081 C 243.489 42.736,237.235 41.974,232.800 37.914 C 231.017 36.282,230.322 36.147,226.400 36.670 C 
            216.877 37.939,211.613 35.460,208.245 28.122 C 207.165 25.769,204.688 21.679,202.741 19.034 C 200.793 
            16.388,199.200 13.706,199.200 13.072 C 199.200 10.583,201.787 7.137,204.816 5.592 C 207.235 4.358,208.000 
            3.491,208.000 1.984 L 208.000 0.000 189.200 0.000 L 170.400 0.000 170.400 2.361 M296.012 46.131 C 300.061 
            47.257,300.800 47.742,300.800 49.274 C 300.800 51.502,302.780 53.600,304.883 53.600 C 314.636 53.600,333.907 
            74.586,337.204 88.800 C 337.970 92.100,339.791 98.580,341.251 103.200 C 346.691 120.415,349.036 
            142.943,345.698 145.928 C 343.441 147.948,343.477 148.022,342.047 138.456 C 340.750 129.784,339.071 
            125.707,336.282 124.459 C 335.044 123.905,334.269 122.187,333.211 117.659 C 331.575 110.653,329.427 
            105.992,327.312 104.860 C 326.421 104.383,325.269 102.059,324.424 99.033 C 322.765 93.092,321.273 
            89.934,318.832 87.200 C 317.850 86.100,315.923 81.586,314.548 77.168 C 312.527 70.673,311.585 68.794,309.624 
            67.345 C 307.735 65.948,307.200 64.939,307.200 62.776 C 307.200 59.387,304.863 56.801,301.800 56.798 C 
            299.890 56.797,299.576 56.455,299.417 54.200 C 299.188 50.955,297.416 49.617,293.247 49.539 C 291.461 
            49.506,288.760 49.030,287.244 48.483 C 284.331 47.430,284.640 46.797,288.663 45.583 C 289.838 45.228,290.895 
            44.907,291.012 44.869 C 291.129 44.831,293.379 45.399,296.012 46.131 M125.200 78.400 C 124.928 
            78.840,125.027 79.200,125.420 79.200 C 128.449 79.200,125.158 96.796,121.130 102.135 C 119.084 
            104.847,111.294 120.312,109.684 124.858 L 108.713 127.600 106.958 125.200 C 105.992 123.880,103.973 
            121.431,102.471 119.759 C 97.838 114.601,98.271 107.310,103.942 94.954 C 106.587 89.191,108.925 
            85.177,109.939 84.659 C 110.852 84.193,112.860 82.614,114.400 81.151 C 116.645 79.018,117.992 78.431,121.200 
            78.190 C 123.400 78.024,125.311 77.824,125.447 77.744 C 125.583 77.665,125.472 77.960,125.200 78.400 
            M352.975 170.800 L 352.484 174.800 351.888 171.600 C 351.100 167.369,351.040 156.429,351.800 155.660 C 
            352.672 154.779,353.551 166.106,352.975 170.800 M371.220 202.852 C 372.171 205.355,370.722 208.996,369.526 
            207.108 C 368.551 205.568,368.622 200.800,369.620 200.800 C 370.071 200.800,370.791 201.724,371.220 202.852 
            M379.200 217.247 C 379.200 220.081,378.904 222.400,378.541 222.400 C 377.364 222.400,375.901 212.555,376.980 
            211.889 C 378.698 210.827,379.200 212.039,379.200 217.247 M173.519 216.102 C 178.386 217.383,181.586 
            218.880,184.742 221.349 C 185.833 222.203,179.720 226.673,174.988 228.481 C 170.208 230.308,169.113 
            231.112,167.109 234.273 C 164.256 238.771,164.238 238.717,170.016 243.212 C 173.818 246.171,174.901 
            247.547,175.701 250.434 C 176.244 252.395,176.928 254.781,177.221 255.735 C 178.381 259.520,169.623 
            266.519,167.271 263.686 C 164.678 260.561,161.829 260.479,158.381 263.431 C 153.742 267.402,149.571 
            268.296,135.200 268.402 C 128.220 268.453,121.576 268.898,120.000 269.419 C 118.460 269.928,114.860 
            270.448,112.000 270.573 L 106.800 270.800 105.432 268.000 C 101.102 259.138,109.798 247.318,124.800 241.674 
            L 133.200 238.514 133.730 234.657 C 134.021 232.536,134.291 228.748,134.330 226.241 C 134.489 
            215.869,153.728 210.892,173.519 216.102 M286.875 259.233 C 283.112 260.359,278.978 264.805,280.260 266.348 C 
            280.832 267.036,281.929 269.058,282.699 270.839 C 284.248 274.426,288.067 277.849,292.618 279.728 C 295.989 
            281.120,298.536 283.132,298.009 283.986 C 297.132 285.405,300.889 287.806,304.799 288.324 C 309.064 
            288.890,311.200 288.091,311.200 285.930 C 311.200 285.340,311.896 284.484,312.747 284.029 C 313.729 
            283.503,314.272 282.399,314.235 281.000 C 314.203 279.790,314.434 277.637,314.748 276.216 C 315.772 
            271.590,313.851 264.882,311.344 264.329 C 305.901 263.128,297.219 260.662,294.645 259.587 C 291.491 
            258.269,290.282 258.214,286.875 259.233 M281.825 298.529 C 281.079 299.428,281.451 300.371,283.644 303.142 C 
            285.160 305.058,286.400 306.959,286.400 307.366 C 286.400 307.773,287.258 309.253,288.307 310.653 C 289.356 
            312.054,290.477 314.100,290.799 315.200 C 291.121 316.300,291.977 317.920,292.702 318.800 C 294.548 
            321.040,296.341 324.626,297.562 328.519 C 298.134 330.344,300.198 333.584,302.148 335.719 C 304.099 
            337.853,306.243 340.392,306.913 341.360 C 307.583 342.327,309.452 343.537,311.066 344.049 C 312.679 
            344.560,314.811 345.487,315.802 346.109 C 317.967 347.467,321.334 346.109,323.405 343.041 C 324.089 
            342.028,326.141 339.580,327.965 337.600 C 331.709 333.536,332.012 328.253,328.745 324.000 C 325.181 
            319.361,322.520 315.338,320.331 311.282 C 317.531 306.095,313.211 301.746,310.200 301.084 C 308.990 
            300.818,308.000 300.335,308.000 300.011 C 308.000 299.687,307.100 299.594,306.000 299.804 C 304.803 
            300.033,304.000 299.817,304.000 299.265 C 304.000 298.574,303.576 298.571,302.303 299.252 C 301.370 
            299.751,300.806 299.837,301.050 299.443 C 301.294 299.048,300.167 298.720,298.547 298.714 C 296.926 
            298.707,292.711 298.409,289.181 298.051 C 284.035 297.529,282.576 297.624,281.825 298.529 M195.413 316.532 C 
            195.800 316.771,195.369 317.491,194.454 318.132 C 192.364 319.596,190.400 323.328,190.400 325.836 C 190.400 
            327.661,189.268 329.546,180.083 343.019 C 177.901 346.220,174.819 351.158,173.234 353.992 C 170.879 
            358.203,169.716 359.428,166.877 360.683 C 163.715 362.082,163.314 362.588,162.422 366.310 C 161.588 
            369.786,161.159 370.400,159.567 370.400 C 156.981 370.400,156.519 369.263,157.967 366.463 C 158.645 
            365.152,159.200 363.044,159.200 361.779 C 159.200 360.367,159.963 358.762,161.178 357.621 C 162.284 
            356.582,163.697 353.789,164.385 351.282 C 165.061 348.817,165.987 345.444,166.443 343.787 C 166.899 
            342.129,168.405 339.483,169.790 337.906 C 171.175 336.328,173.409 332.836,174.754 330.146 C 176.480 
            326.694,178.201 324.582,180.600 322.974 C 182.470 321.720,184.000 320.345,184.000 319.919 C 184.000 
            315.957,191.082 313.855,195.413 316.532 M67.165 322.600 C 71.629 329.585,73.579 335.368,74.056 343.037 C 
            74.391 348.427,75.121 352.268,76.444 355.600 C 77.492 358.240,78.944 362.560,79.671 365.200 C 80.398 
            367.840,82.839 373.620,85.096 378.044 C 90.504 388.644,94.721 397.693,97.007 403.600 C 98.028 
            406.240,101.189 412.126,104.032 416.679 C 116.241 436.239,117.845 439.023,119.306 443.189 C 120.925 
            447.809,120.764 450.529,118.624 454.714 L 117.441 457.027 115.721 454.929 C 114.774 453.775,112.671 
            452.288,111.048 451.625 C 108.100 450.420,105.273 447.332,102.969 442.800 C 102.298 441.480,99.369 
            437.520,96.459 434.000 C 83.595 418.437,80.353 413.539,78.456 406.800 C 77.466 403.280,75.458 397.880,73.996 
            394.800 C 67.017 380.101,64.779 358.959,69.648 353.732 C 71.636 351.598,72.269 348.312,71.291 345.200 C 
            70.789 343.600,70.515 343.318,70.469 344.353 C 70.401 345.890,70.388 345.890,69.225 344.353 C 68.439 
            343.314,68.042 343.163,68.025 343.898 C 68.006 344.725,67.735 344.776,66.926 344.105 C 66.336 343.615,65.666 
            343.401,65.438 343.629 C 64.388 344.678,62.256 333.922,62.747 330.051 C 63.806 321.691,65.144 319.436,67.165 
            322.600 M207.645 336.178 C 206.960 337.156,206.400 339.097,206.400 340.492 C 206.400 342.009,205.918 
            343.214,205.200 343.489 C 204.216 343.867,204.000 343.091,204.000 339.175 L 204.000 334.400 206.445 334.400 
            C 208.813 334.400,208.851 334.457,207.645 336.178 M244.356 359.249 C 241.906 361.956,246.596 363.719,249.793 
            361.292 C 251.113 360.290,251.109 360.166,249.730 358.917 C 247.784 357.157,246.158 357.257,244.356 359.249 
            M330.239 372.869 C 324.928 376.506,324.374 377.832,323.078 390.000 C 321.674 403.192,323.582 424.003,325.965 
            421.486 C 326.114 421.329,327.594 418.860,329.253 416.000 C 330.913 413.140,333.413 409.451,334.809 407.803 
            C 337.036 405.175,337.457 403.894,338.232 397.403 C 338.718 393.331,339.650 387.425,340.303 384.277 C 
            341.734 377.379,341.365 375.587,337.813 372.200 C 336.313 370.770,335.022 369.633,334.943 369.673 C 334.864 
            369.713,332.747 371.152,330.239 372.869 M153.959 375.014 C 154.226 376.231,153.935 378.661,153.311 380.414 L 
            152.176 383.600 151.288 381.348 C 150.166 378.502,150.173 377.374,151.328 374.838 C 152.529 372.202,153.354 
            372.257,153.959 375.014 M261.600 386.971 C 262.260 387.216,263.394 387.721,264.120 388.093 C 265.022 
            388.556,265.584 388.395,265.895 387.585 C 266.249 386.663,265.689 386.414,263.375 386.463 C 261.739 
            386.498,260.940 386.727,261.600 386.971 M224.950 402.745 L 227.900 404.249 225.915 405.810 C 224.329 
            407.057,223.226 407.266,220.430 406.846 C 217.479 406.404,214.229 404.450,215.286 403.755 C 216.460 
            402.982,221.274 400.939,221.600 401.075 C 221.820 401.167,223.327 401.918,224.950 402.745" fill-rule="evenodd"
            stroke="none"/>
    </g>
</svg>