<?xml version="1.0" standalone="no"?><svg contentScriptType="text/ecmascript" width="100" xmlns:xlink="http://www.w3.org/1999/xlink" baseProfile="full" zoomAndPan="magnify" contentStyleType="text/css" height="100" preserveAspectRatio="xMidYMid meet" xmlns="http://www.w3.org/2000/svg" version="1.1"><g transform="scale(0.2)"><path fill="none" stroke-width="6px" d="M 88.0 201.0 C 97.0 189.0 97.0 189.0 97.0 189.0 C 108.0 182.0 108.0 182.0 108.0 182.0 C 122.0 181.0 122.0 181.0 122.0 181.0" stroke="#000000"/><path fill="none" stroke-width="6px" d="M 275.0 167.0 C 305.0 154.0 305.0 154.0 305.0 154.0 C 333.0 155.0 333.0 155.0 333.0 155.0 C 357.0 170.0 357.0 170.0 357.0 170.0 C 368.0 198.0 368.0 198.0 368.0 198.0" stroke="#000000"/><path fill="none" stroke-width="6px" d="M 371.0 96.0 C 377.0 97.0 377.0 97.0 377.0 97.0 C 385.0 109.0 385.0 109.0 385.0 109.0 C 393.0 134.0 393.0 134.0 393.0 134.0 C 393.0 145.0 393.0 145.0 393.0 145.0 C 400.0 162.0 400.0 162.0 400.0 162.0 C 402.0 183.0 402.0 183.0 402.0 183.0" stroke="#000000"/><path fill="none" stroke-width="6px" d="M 188.0 289.0 C 193.0 296.0 193.0 296.0 193.0 296.0" stroke="#000000"/><path fill="none" stroke-width="6px" d="M 232.0 282.0 C 241.0 292.0 241.0 292.0 241.0 292.0 C 249.0 292.0 249.0 292.0 249.0 292.0 C 253.0 297.0 253.0 297.0 253.0 297.0" stroke="#000000"/><path fill="none" stroke-width="6px" d="M 234.0 354.0 C 316.0 383.0 316.0 383.0 316.0 383.0 C 320.0 383.0 320.0 383.0 320.0 383.0 C 324.0 377.0 324.0 377.0 324.0 377.0 C 325.0 356.0 325.0 356.0 325.0 356.0" stroke="#000000"/></g></svg>