<svg contentScriptType="text/ecmascript" width="313" baseProfile="full" zoomAndPan="magnify" contentStyleType="text/css" height="60" preserveAspectRatio="xMidYMid meet" xmlns="http://www.w3.org/2000/svg" version="1"><g x="0" y="0"><path fill="#ef2b2d" d="M0 0h82.5v60H0z"/><path fill="#fff" d="M22.5 0h15v60h-15z"/><path fill="#fff" d="M0 22.5h82.5v15H0z"/><path fill="#002868" d="M26.25 0h7.5v60h-7.5z"/><path fill="#002868" d="M0 26.25h82.5v7.5H0z"/></g><path fill="#006aa7" d="M90 0h96v60H90z"/><path fill="#fecc00" d="M120 0h12v60h-12z"/><path fill="#fecc00" d="M90 24h96v12H90z"/><g><g transform="translate(194.535) scale(1.965)"><clipPath id="a"><path d="M30 15h30v15zv15H0zH0V0zV0h30z"/></clipPath><path fill="#00247d" d="M0 0v30h60V0z"/><path d="M0 0l60 30m0-30L0 30" stroke-width="6" stroke="#fff"/><path stroke-width="4" d="M0 0l60 30m0-30L0 30" clip-path="url(#a)" stroke="#cf142b"/><path d="M30 0v30M0 15h60" stroke-width="10" stroke="#fff"/><path d="M30 0v30M0 15h60" stroke-width="6" stroke="#cf142b"/></g></g></svg>